<?xml version="1.0" encoding="utf-8"?>
  <svg
      viewBox="0 0 369.89473684210526 111.53636296459396"
      className="css-1j8o68f"
    >
      <defs id="SvgjsDefs1317"></defs>
      <g
        id="SvgjsG1318"
        featureKey="xG21Y3-0"
        transform="matrix(1.3649269263410153,0,0,1.3649269263410153,-17.606191350275456,-4.094780779023046)"
        fill="#ffffff"
      >
        <path
          xmlns="http://www.w3.org/2000/svg"
          fill="none"
          stroke="#ffffff"
          stroke-width="3"
          stroke-miterlimit="10"
          d="M80.379,69.34c0,8.215-6.661,14.876-14.875,14.876  H27.775c-8.216,0-14.876-6.661-14.876-14.876V31.612c0-8.216,6.66-14.876,14.876-14.876h37.729c8.214,0,14.875,6.66,14.875,14.876  V69.34z"
        ></path>
        <path
          xmlns="http://www.w3.org/2000/svg"
          fill="none"
          stroke="#ffffff"
          stroke-width="2"
          stroke-miterlimit="10"
          d="M68.236,65.281  c2.071,5.175-0.444,11.048-5.619,13.121l0,0c-5.173,2.071-11.049-0.443-13.119-5.619l-5.076-12.678  c-2.071-5.175,0.444-11.049,5.619-13.12l0,0c5.175-2.072,11.048,0.444,13.12,5.619L68.236,65.281z"
        ></path>
        <path
          xmlns="http://www.w3.org/2000/svg"
          fill="none"
          stroke="#ffffff"
          stroke-linecap="round"
          stroke-miterlimit="10"
          d="M50.041,46.985  C42.618,29.316,29.363,32.045,28.583,3"
        ></path>
        <path
          xmlns="http://www.w3.org/2000/svg"
          fill="none"
          stroke="#ffffff"
          stroke-width="2"
          stroke-linecap="round"
          stroke-miterlimit="10"
          d="M54.105,57.679l-1.563-4.109  "
        ></path>
        <path
          xmlns="http://www.w3.org/2000/svg"
          fill="none"
          stroke="#ffffff"
          stroke-width="0.5"
          stroke-miterlimit="10"
          d="M58.101,46.898  c0.363,0.598,0.686,1.24,0.959,1.923l5.075,12.677c2.071,5.175,0.517,10.663-3.472,12.262l0,0  c-3.988,1.597-8.902-1.303-10.973-6.479l-5.076-12.678c-0.216-0.541-0.393-1.085-0.531-1.628"
        ></path>
      </g>
      <g
        id="SvgjsG1319"
        featureKey="n48U4P-0"
        transform="matrix(4.063894430550137,0,0,4.063894430550137,111.59360997560023,2.7545266477080688)"
        fill="#ffffff"
      >
        <path d="M3.08 9.66 l2.18 7.06 l0.04 0 l2.18 -7.06 l2.82 0 l-3.5 10.34 l-3.16 0 l-3.54 -10.34 l2.98 0 z M14.4 5.720000000000001 l0 2.34 l-2.84 0 l0 -2.34 l2.84 0 z M14.4 9.66 l0 10.34 l-2.84 0 l0 -10.34 l2.84 0 z M20.240000000000002 6.5600000000000005 l0.000019531 3.1 l2.08 0 l0 1.9 l-2.08 0 l0 5.12 c0 0.48 0.08 0.8 0.24 0.96 s0.48 0.24 0.96 0.24 c0.34666 0 0.64 -0.02666 0.88 -0.08 l0 2.22 c-0.4 0.06666 -0.96 0.1 -1.68 0.1 c-1.0933 0 -1.9067 -0.18666 -2.44 -0.56 s-0.8 -1.02 -0.8 -1.94 l0 -6.06 l-1.72 0 l0 -1.9 l1.72 0 l0 -3.1 l2.84 0 z M28.44 9.38 c3.0134 0.01334 4.52 0.9933 4.52 2.94 l0 5.48 c0 1.0133 0.12 1.7467 0.36 2.2 l-2.88 0 c-0.10666 -0.32 -0.17332 -0.65334 -0.19998 -1 c-0.84 0.85334 -2 1.28 -3.48 1.28 c-1.08 0 -1.9367 -0.27334 -2.57 -0.82 s-0.95 -1.3067 -0.95 -2.28 c0 -0.94666 0.3 -1.68 0.9 -2.2 c0.61334 -0.54666 1.7267 -0.89332 3.34 -1.04 c1.1467 -0.12 1.8733 -0.27 2.18 -0.45 s0.46 -0.45666 0.46 -0.83 c0 -0.46666 -0.14 -0.81332 -0.42 -1.04 s-0.74666 -0.34 -1.4 -0.34 c-0.6 0 -1.0533 0.12334 -1.36 0.37 s-0.48666 0.64332 -0.54 1.19 l-2.84 0 c0.06666 -1.1333 0.53332 -1.9933 1.4 -2.58 s2.0266 -0.88 3.48 -0.88 z M26.080000000000002 17.06 c0 0.88 0.58 1.32 1.74 1.32 c1.52 -0.01334 2.2866 -0.79334 2.3 -2.34 l0 -1.1 c-0.22666 0.22666 -0.8 0.39332 -1.72 0.49998 c-0.8 0.09334 -1.3867 0.25668 -1.76 0.49002 s-0.56 0.61 -0.56 1.13 z M38.76 6.5600000000000005 l0.000019531 3.1 l2.08 0 l0 1.9 l-2.08 0 l0 5.12 c0 0.48 0.08 0.8 0.24 0.96 s0.48 0.24 0.96 0.24 c0.34666 0 0.64 -0.02666 0.88 -0.08 l0 2.22 c-0.4 0.06666 -0.96 0.1 -1.68 0.1 c-1.0933 0 -1.9067 -0.18666 -2.44 -0.56 s-0.8 -1.02 -0.8 -1.94 l0 -6.06 l-1.72 0 l0 -1.9 l1.72 0 l0 -3.1 l2.84 0 z M46.98 9.38 c0.97334 0 1.84 0.22664 2.6 0.67998 s1.3567 1.11 1.79 1.97 s0.65 1.85 0.65 2.97 c0 0.10666 -0.0066602 0.28 -0.02 0.52 l-7.46 0 c0.02666 0.82666 0.24332 1.47 0.64998 1.93 s1.03 0.69 1.87 0.69 c0.52 0 0.99666 -0.13 1.43 -0.39 s0.71 -0.57666 0.83 -0.95 l2.5 0 c-0.73334 2.32 -2.3466 3.48 -4.84 3.48 c-0.94666 -0.01334 -1.8233 -0.22 -2.63 -0.62 s-1.45 -1.0233 -1.93 -1.87 s-0.72 -1.83 -0.72 -2.95 c0 -1.0533 0.24334 -2.0134 0.73 -2.88 s1.1333 -1.5133 1.94 -1.94 s1.6767 -0.64 2.61 -0.64 z M49.16 13.719999999999999 c-0.13334 -0.77334 -0.38 -1.3333 -0.74 -1.68 s-0.87334 -0.52 -1.54 -0.52 c-0.69334 0 -1.24 0.19666 -1.64 0.59 s-0.63334 0.93 -0.7 1.61 l4.62 0 z M58.63999999999999 9.38 c1.4 0 2.54 0.35664 3.42 1.07 s1.36 1.6633 1.44 2.85 l-2.78 0 c-0.18666 -1.1867 -0.88666 -1.78 -2.1 -1.78 c-0.74666 0 -1.3367 0.30666 -1.77 0.92 s-0.65 1.4267 -0.65 2.44 c0 0.97334 0.20666 1.76 0.62 2.36 s0.99334 0.9 1.74 0.9 c1.2933 0 2.0466 -0.7 2.26 -2.1 l2.74 0 c-0.18666 1.3733 -0.71666 2.4234 -1.59 3.15 s-2.0034 1.09 -3.39 1.09 c-1.5333 0 -2.7866 -0.49 -3.76 -1.47 s-1.46 -2.2566 -1.46 -3.83 c0 -1.7067 0.48 -3.0666 1.44 -4.08 s2.24 -1.52 3.84 -1.52 z"></path>
      </g>
    </svg>